<?xml version="1.0" encoding="UTF-8" standalone="no"?>
<!DOCTYPE svg PUBLIC "-//W3C//DTD SVG 1.1//EN" "http://www.w3.org/Graphics/SVG/1.1/DTD/svg11.dtd">
<svg width="100%" height="100%" viewBox="0 0 444 328" version="1.1" xmlns="http://www.w3.org/2000/svg" xmlns:xlink="http://www.w3.org/1999/xlink" xml:space="preserve" xmlns:serif="http://www.serif.com/" style="fill-rule:evenodd;clip-rule:evenodd;stroke-linecap:round;stroke-linejoin:round;stroke-miterlimit:10;">
    <g transform="matrix(1,0,0,1,-31.7652,-60.184)">
        <g transform="matrix(1,0,0,1,150.955,238.69)">
            <path d="M0,24.921L0,11.076C0,8.47 0.094,4.955 0.285,0.529C0.474,-3.895 0.623,-6.217 0.733,-6.434L-0.163,-6.434C-2.01,-2.253 -4.1,1.657 -6.434,5.294L-19.628,24.921L0,24.921ZM44.874,48.947L31.762,48.947L31.762,71.995L0,71.995L0,48.947L-47.481,48.947L-47.481,25.328L2.036,-47.074L31.762,-47.074L31.762,24.921L44.874,24.921L44.874,48.947Z" style="fill:#2F014A;fill-rule:nonzero;"/>
        </g>
        <g transform="matrix(1,0,0,1,236.224,250.907)">
            <path d="M0,0.407C0,13.873 0.841,23.13 2.525,28.179C4.207,33.228 7.031,35.753 10.995,35.753C15.012,35.753 17.848,33.147 19.505,27.935C21.161,22.723 21.989,13.547 21.989,0.407C21.989,-12.786 21.146,-22.03 19.465,-27.324C17.781,-32.618 14.957,-35.264 10.995,-35.264C7.031,-35.264 4.207,-32.712 2.525,-27.609C0.841,-22.505 0,-13.166 0,0.407M53.996,0.407C53.996,21.474 50.466,36.907 43.408,46.708C36.35,56.508 25.544,61.407 10.995,61.407C-3.231,61.407 -13.954,56.291 -21.175,46.056C-28.397,35.823 -32.007,20.605 -32.007,0.407C-32.007,-20.768 -28.478,-36.295 -21.419,-46.178C-14.362,-56.06 -3.556,-61 10.995,-61C25.166,-61 35.874,-55.855 43.123,-45.567C50.372,-35.277 53.996,-19.953 53.996,0.407" style="fill:#2F014A;fill-rule:nonzero;"/>
        </g>
        <g transform="matrix(1,0,0,1,346.415,238.69)">
            <path d="M0,24.921L0,11.076C0,8.47 0.094,4.955 0.285,0.529C0.474,-3.895 0.623,-6.217 0.733,-6.434L-0.163,-6.434C-2.009,-2.253 -4.1,1.657 -6.434,5.294L-19.627,24.921L0,24.921ZM44.874,48.947L31.762,48.947L31.762,71.995L0,71.995L0,48.947L-47.481,48.947L-47.481,25.328L2.036,-47.074L31.762,-47.074L31.762,24.921L44.874,24.921L44.874,48.947Z" style="fill:#2F014A;fill-rule:nonzero;"/>
        </g>
        <g transform="matrix(1,0,0,1,55.7504,218.037)">
            <path d="M0,0L48.136,0" style="fill:none;fill-rule:nonzero;stroke:white;stroke-width:2.16px;"/>
        </g>
        <g transform="matrix(1,0,0,1,115.441,218.037)">
            <path d="M0,0L10.275,0" style="fill:none;fill-rule:nonzero;stroke:white;stroke-width:2.16px;"/>
        </g>
        <g transform="matrix(1,0,0,1,47.0329,204.488)">
            <path d="M0,0L86.175,0" style="fill:none;fill-rule:nonzero;stroke:white;stroke-width:2.16px;"/>
        </g>
        <g transform="matrix(-1,0,0,1,32.8467,204.488)">
            <path d="M-7.093,0L0,0" style="fill:none;fill-rule:nonzero;stroke:white;stroke-width:2.16px;"/>
        </g>
        <g transform="matrix(1,0,0,1,47.0329,191.617)">
            <path d="M0,0L28.61,0" style="fill:none;fill-rule:nonzero;stroke:white;stroke-width:2.16px;"/>
        </g>
        <g transform="matrix(1,0,0,1,83.3029,191.617)">
            <path d="M0,0L60.086,0" style="fill:none;fill-rule:nonzero;stroke:white;stroke-width:2.16px;"/>
        </g>
        <g transform="matrix(1,0,0,1,396.009,325.524)">
            <path d="M0,0L51.512,0" style="fill:none;fill-rule:nonzero;stroke:white;stroke-width:2.16px;"/>
        </g>
        <g transform="matrix(1,0,0,1,455.899,325.524)">
            <path d="M0,0L7.451,0" style="fill:none;fill-rule:nonzero;stroke:white;stroke-width:2.16px;"/>
        </g>
        <g transform="matrix(1,0,0,1,406.296,311.975)">
            <path d="M0,0L67.508,0" style="fill:none;fill-rule:nonzero;stroke:white;stroke-width:2.16px;"/>
        </g>
        <g transform="matrix(-1,0,0,1,396.009,311.975)">
            <path d="M-5.143,0L0,0" style="fill:none;fill-rule:nonzero;stroke:white;stroke-width:2.16px;"/>
        </g>
        <g transform="matrix(1,0,0,1,396.009,299.104)">
            <path d="M0,0L31.032,0" style="fill:none;fill-rule:nonzero;stroke:white;stroke-width:2.16px;"/>
        </g>
        <g transform="matrix(1,0,0,1,432.595,299.104)">
            <path d="M0,0L23.304,0" style="fill:none;fill-rule:nonzero;stroke:white;stroke-width:2.16px;"/>
        </g>
        <g transform="matrix(1,0,0,1,157.119,238.236)">
            <path d="M0,24.921L0,11.076C0,8.47 0.094,4.955 0.285,0.529C0.474,-3.895 0.623,-6.217 0.733,-6.434L-0.163,-6.434C-2.01,-2.253 -4.1,1.657 -6.434,5.294L-19.628,24.921L0,24.921ZM44.874,48.947L31.762,48.947L31.762,71.995L0,71.995L0,48.947L-47.481,48.947L-47.481,25.328L2.036,-47.074L31.762,-47.074L31.762,24.921L44.874,24.921L44.874,48.947Z" style="fill:none;fill-rule:nonzero;stroke:white;stroke-width:3.27px;stroke-linecap:butt;stroke-linejoin:miter;"/>
        </g>
        <g transform="matrix(1,0,0,1,242.389,250.452)">
            <path d="M0,0.407C0,13.873 0.841,23.13 2.525,28.179C4.207,33.228 7.031,35.753 10.995,35.753C15.012,35.753 17.848,33.147 19.505,27.935C21.161,22.723 21.989,13.547 21.989,0.407C21.989,-12.786 21.146,-22.031 19.465,-27.324C17.781,-32.618 14.957,-35.264 10.995,-35.264C7.031,-35.264 4.207,-32.712 2.525,-27.609C0.841,-22.505 0,-13.166 0,0.407ZM53.996,0.407C53.996,21.474 50.466,36.907 43.408,46.708C36.35,56.508 25.544,61.407 10.995,61.407C-3.231,61.407 -13.954,56.291 -21.175,46.056C-28.397,35.823 -32.007,20.605 -32.007,0.407C-32.007,-20.768 -28.478,-36.295 -21.419,-46.178C-14.362,-56.06 -3.556,-61 10.995,-61C25.166,-61 35.875,-55.855 43.123,-45.567C50.372,-35.277 53.996,-19.953 53.996,0.407Z" style="fill:none;fill-rule:nonzero;stroke:white;stroke-width:3.27px;stroke-linecap:butt;stroke-linejoin:miter;"/>
        </g>
        <g transform="matrix(1,0,0,1,352.58,238.236)">
            <path d="M0,24.921L0,11.076C0,8.47 0.094,4.955 0.285,0.529C0.474,-3.895 0.623,-6.217 0.733,-6.434L-0.163,-6.434C-2.009,-2.253 -4.1,1.657 -6.434,5.294L-19.627,24.921L0,24.921ZM44.874,48.947L31.762,48.947L31.762,71.995L0,71.995L0,48.947L-47.481,48.947L-47.481,25.328L2.036,-47.074L31.762,-47.074L31.762,24.921L44.874,24.921L44.874,48.947Z" style="fill:none;fill-rule:nonzero;stroke:white;stroke-width:3.27px;stroke-linecap:butt;stroke-linejoin:miter;"/>
        </g>
        <g>
            <text x="190.382px" y="362.4px" style="font-family:'Helvetica';font-size:37.186px;fill:white;stroke:white;stroke-width:1px;stroke-linecap:butt;stroke-miterlimit:2;">E<tspan x="213.426px 238.522px 263.618px 290.783px " y="362.4px 362.4px 362.4px 362.4px ">RROR</tspan></text>
            <g transform="matrix(13.07,0,0,13.07,319.51,362.4)">
            </g>
            <text x="315.879px" y="362.4px" style="font-family:'Helvetica';font-size:13.07px;fill:white;stroke:white;stroke-width:1px;stroke-linecap:butt;stroke-miterlimit:2;">.</text>
        </g>
        <g transform="matrix(0,-1,-1,0,424.009,209.581)">
            <path d="M-5.52,5.52L5.52,5.52" style="fill:none;fill-rule:nonzero;stroke:white;stroke-width:2.16px;"/>
        </g>
        <g transform="matrix(-0.707107,-0.707107,-0.707107,0.707107,406.88,208.869)">
            <path d="M-9.423,3.903L1.617,3.903" style="fill:none;fill-rule:nonzero;stroke:white;stroke-width:2.16px;"/>
        </g>
        <g transform="matrix(-1,0,0,1,396.553,225.998)">
            <path d="M-11.039,0L0,0" style="fill:none;fill-rule:nonzero;stroke:white;stroke-width:2.16px;"/>
        </g>
        <g transform="matrix(-0.707107,0.707107,0.707107,0.707107,406.88,243.126)">
            <path d="M-9.423,-3.903L1.617,-3.903" style="fill:none;fill-rule:nonzero;stroke:white;stroke-width:2.16px;"/>
        </g>
        <g transform="matrix(0,1,1,0,424.009,242.415)">
            <path d="M-5.52,-5.52L5.52,-5.52" style="fill:none;fill-rule:nonzero;stroke:white;stroke-width:2.16px;"/>
        </g>
        <g transform="matrix(0.707107,0.707107,0.707107,-0.707107,430.098,232.087)">
            <path d="M-1.617,-3.903L9.423,-3.903" style="fill:none;fill-rule:nonzero;stroke:white;stroke-width:2.16px;"/>
        </g>
        <g transform="matrix(1,0,0,1,429.387,225.998)">
            <path d="M0,0L11.039,0" style="fill:none;fill-rule:nonzero;stroke:white;stroke-width:2.16px;"/>
        </g>
        <g transform="matrix(0.707107,-0.707107,-0.707107,-0.707107,430.098,219.909)">
            <path d="M-1.617,3.903L9.423,3.903" style="fill:none;fill-rule:nonzero;stroke:white;stroke-width:2.16px;"/>
        </g>
        <g transform="matrix(0,-1,-1,0,76.2508,266.077)">
            <path d="M-3.99,3.99L3.99,3.99" style="fill:none;fill-rule:nonzero;stroke:white;stroke-width:2.16px;"/>
        </g>
        <g transform="matrix(-0.707107,-0.707107,-0.707107,0.707107,63.8703,265.563)">
            <path d="M-6.81,2.821L1.168,2.821" style="fill:none;fill-rule:nonzero;stroke:white;stroke-width:2.16px;"/>
        </g>
        <g transform="matrix(-1,0,0,1,56.4051,277.944)">
            <path d="M-7.979,0L0,0" style="fill:none;fill-rule:nonzero;stroke:white;stroke-width:2.16px;"/>
        </g>
        <g transform="matrix(-0.707107,0.707107,0.707107,0.707107,63.8703,290.324)">
            <path d="M-6.81,-2.821L1.168,-2.821" style="fill:none;fill-rule:nonzero;stroke:white;stroke-width:2.16px;"/>
        </g>
        <g transform="matrix(0,1,1,0,76.2508,289.81)">
            <path d="M-3.99,-3.99L3.99,-3.99" style="fill:none;fill-rule:nonzero;stroke:white;stroke-width:2.16px;"/>
        </g>
        <g transform="matrix(0.707107,0.707107,0.707107,-0.707107,80.6523,282.345)">
            <path d="M-1.168,-2.821L6.81,-2.821" style="fill:none;fill-rule:nonzero;stroke:white;stroke-width:2.16px;"/>
        </g>
        <g transform="matrix(1,0,0,1,80.1384,277.944)">
            <path d="M0,0L7.979,0" style="fill:none;fill-rule:nonzero;stroke:white;stroke-width:2.16px;"/>
        </g>
        <g transform="matrix(0.707107,-0.707107,-0.707107,-0.707107,80.6523,273.542)">
            <path d="M-1.168,2.821L6.81,2.821" style="fill:none;fill-rule:nonzero;stroke:white;stroke-width:2.16px;"/>
        </g>
        <g transform="matrix(0,-1,-1,0,292.172,101.264)">
            <path d="M-3.99,3.99L3.99,3.99" style="fill:none;fill-rule:nonzero;stroke:white;stroke-width:2.16px;"/>
        </g>
        <g transform="matrix(-0.707107,-0.707107,-0.707107,0.707107,279.792,100.75)">
            <path d="M-6.81,2.821L1.168,2.821" style="fill:none;fill-rule:nonzero;stroke:white;stroke-width:2.16px;"/>
        </g>
        <g transform="matrix(-1,0,0,1,272.327,113.131)">
            <path d="M-7.979,0L0,0" style="fill:none;fill-rule:nonzero;stroke:white;stroke-width:2.16px;"/>
        </g>
        <g transform="matrix(-0.707107,0.707107,0.707107,0.707107,279.792,125.511)">
            <path d="M-6.81,-2.821L1.168,-2.821" style="fill:none;fill-rule:nonzero;stroke:white;stroke-width:2.16px;"/>
        </g>
        <g transform="matrix(0,1,1,0,292.172,124.997)">
            <path d="M-3.99,-3.99L3.99,-3.99" style="fill:none;fill-rule:nonzero;stroke:white;stroke-width:2.16px;"/>
        </g>
        <g transform="matrix(0.707107,0.707107,0.707107,-0.707107,296.574,117.532)">
            <path d="M-1.168,-2.821L6.81,-2.821" style="fill:none;fill-rule:nonzero;stroke:white;stroke-width:2.16px;"/>
        </g>
        <g transform="matrix(1,0,0,1,296.06,113.131)">
            <path d="M0,0L7.979,0" style="fill:none;fill-rule:nonzero;stroke:white;stroke-width:2.16px;"/>
        </g>
        <g transform="matrix(0.707107,-0.707107,-0.707107,-0.707107,296.574,108.729)">
            <path d="M-1.168,2.821L6.81,2.821" style="fill:none;fill-rule:nonzero;stroke:white;stroke-width:2.16px;"/>
        </g>
        <g transform="matrix(-1,0,0,1,497.507,196.888)">
            <rect x="111.873" y="130.007" width="273.761" height="43.098" style="fill:none;stroke:white;stroke-width:2.42px;"/>
        </g>
        <g transform="matrix(1,0,0,1,133.208,179.861)">
            <path d="M0,-7.663L0,-42.191L179.493,-42.191L179.493,34.528" style="fill:none;fill-rule:nonzero;stroke:white;stroke-width:2.16px;"/>
        </g>
        <g transform="matrix(1,0,0,1,249.436,176.03)">
            <path d="M0,-62.899L0,-19.669L119.027,-19.669L119.027,0" style="fill:none;fill-rule:nonzero;stroke:white;stroke-width:2.16px;"/>
        </g>
        <g transform="matrix(0,-1,-1,0,133.208,172.198)">
            <circle cx="-4.283" cy="0" r="4.283" style="fill:none;stroke:white;stroke-width:2.16px;"/>
        </g>
        <g transform="matrix(0,-1,-1,0,249.437,104.564)">
            <circle cx="-4.283" cy="0" r="4.283" style="fill:none;stroke:white;stroke-width:2.16px;"/>
        </g>
        <g transform="matrix(0,-1,-1,0,368.464,176.481)">
            <circle cx="-4.283" cy="0" r="4.283" style="fill:none;stroke:white;stroke-width:2.16px;"/>
        </g>
        <g transform="matrix(0,-1,-1,0,312.701,215.1)">
            <circle cx="-4.283" cy="0" r="4.283" style="fill:none;stroke:white;stroke-width:2.16px;"/>
        </g>
        <g transform="matrix(-0.707107,0.707107,0.707107,0.707107,100.228,317.396)">
            <path d="M-12.233,-5.067L2.099,-5.067" style="fill:none;fill-rule:nonzero;stroke:white;stroke-width:2.16px;"/>
        </g>
        <g transform="matrix(0.707107,0.707107,0.707107,-0.707107,100.228,303.065)">
            <path d="M-2.099,-5.067L12.233,-5.067" style="fill:none;fill-rule:nonzero;stroke:white;stroke-width:2.16px;"/>
        </g>
        <g transform="matrix(-0.707107,0.707107,0.707107,0.707107,105.295,170.233)">
            <path d="M-12.233,-5.067L2.099,-5.067" style="fill:none;fill-rule:nonzero;stroke:white;stroke-width:2.16px;"/>
        </g>
        <g transform="matrix(0.707107,0.707107,0.707107,-0.707107,105.295,155.901)">
            <path d="M-2.099,-5.067L12.233,-5.067" style="fill:none;fill-rule:nonzero;stroke:white;stroke-width:2.16px;"/>
        </g>
        <g transform="matrix(-0.707107,0.707107,0.707107,0.707107,434.001,285.109)">
            <path d="M-12.233,-5.067L2.099,-5.067" style="fill:none;fill-rule:nonzero;stroke:white;stroke-width:2.16px;"/>
        </g>
        <g transform="matrix(0.707107,0.707107,0.707107,-0.707107,434,270.778)">
            <path d="M-2.099,-5.067L12.233,-5.067" style="fill:none;fill-rule:nonzero;stroke:white;stroke-width:2.16px;"/>
        </g>
        <g transform="matrix(1,0,0,1,151.47,117.533)">
            <path d="M0,-17.372C-3.232,-17.372 -6.19,-16.209 -8.487,-14.283C-10.833,-21.345 -17.481,-26.443 -25.33,-26.443C-34.118,-26.443 -41.395,-20.054 -42.817,-11.672C-43.744,-11.937 -44.719,-12.087 -45.73,-12.087C-51.573,-12.087 -56.309,-7.351 -56.309,-1.508C-56.309,3.867 -52.298,8.295 -47.107,8.972L-47.107,9.071L0,9.071C7.302,9.071 13.222,3.152 13.222,-4.15C13.222,-11.452 7.302,-17.372 0,-17.372Z" style="fill:none;fill-rule:nonzero;stroke:white;stroke-width:2.26px;"/>
        </g>
        <g transform="matrix(1,0,0,1,396.605,180.038)">
            <path d="M0,-12.621C2.348,-12.621 4.497,-11.776 6.166,-10.377C7.87,-15.507 12.7,-19.211 18.402,-19.211C24.786,-19.211 30.072,-14.569 31.106,-8.48C31.779,-8.672 32.487,-8.782 33.222,-8.782C37.466,-8.782 40.907,-5.341 40.907,-1.096C40.907,2.809 37.993,6.026 34.222,6.517L34.222,6.59L0,6.59C-5.305,6.59 -9.605,2.289 -9.605,-3.016C-9.605,-8.321 -5.305,-12.621 0,-12.621Z" style="fill:none;fill-rule:nonzero;stroke:white;stroke-width:2.16px;"/>
        </g>
        <g transform="matrix(1,0,0,1,443.789,359.697)">
            <path d="M0,-10.584C-1.969,-10.584 -3.771,-9.875 -5.171,-8.702C-6.6,-13.004 -10.65,-16.111 -15.433,-16.111C-20.787,-16.111 -25.22,-12.218 -26.087,-7.111C-26.651,-7.273 -27.245,-7.364 -27.861,-7.364C-31.421,-7.364 -34.307,-4.479 -34.307,-0.919C-34.307,2.356 -31.863,5.054 -28.7,5.466L-28.7,5.527L0,5.527C4.449,5.527 8.055,1.92 8.055,-2.529C8.055,-6.977 4.449,-10.584 0,-10.584Z" style="fill:none;fill-rule:nonzero;stroke:white;stroke-width:2.16px;"/>
        </g>
        <g transform="matrix(1,0,0,1,54.2532,344.735)">
            <path d="M0,-12.621C2.348,-12.621 4.497,-11.776 6.166,-10.377C7.87,-15.507 12.7,-19.211 18.402,-19.211C24.786,-19.211 30.072,-14.569 31.106,-8.48C31.779,-8.672 32.487,-8.782 33.222,-8.782C37.466,-8.782 40.907,-5.341 40.907,-1.096C40.907,2.809 37.993,6.026 34.222,6.517L34.222,6.59L0,6.59C-5.305,6.59 -9.605,2.289 -9.605,-3.016C-9.605,-8.321 -5.305,-12.621 0,-12.621Z" style="fill:none;fill-rule:nonzero;stroke:white;stroke-width:2.16px;"/>
        </g>
        <g transform="matrix(1,0,0,1,164.692,103.323)">
            <path d="M0,-9.505C0,-9.505 60.44,-58.782 142.56,-36.08C228.824,-12.233 246.092,49.277 246.092,49.277" style="fill:none;fill-rule:nonzero;stroke:white;stroke-width:2.16px;stroke-dasharray:3.27,7.62;"/>
        </g>
        <g transform="matrix(-0.120236,0.992745,0.992745,0.120236,89.9978,295.464)">
            <path d="M-56.009,-23.47C-49.584,-46.294 1.201,-52.008 17.63,-23.47" style="fill:none;fill-rule:nonzero;stroke:white;stroke-width:2.02px;stroke-dasharray:3.05,7.11;"/>
        </g>
        <g transform="matrix(0.992866,-0.119235,-0.119235,-0.992866,368.037,384.005)">
            <path d="M0.839,3.404C0.839,3.404 38.598,-18.803 58.984,3.404" style="fill:none;fill-rule:nonzero;stroke:white;stroke-width:2.16px;stroke-dasharray:3.27,7.62;"/>
        </g>
        <g transform="matrix(0,-1,-1,0,190.186,168.091)">
            <path d="M-12.673,12.673L12.673,12.673" style="fill:none;fill-rule:nonzero;stroke:white;stroke-width:2.16px;"/>
        </g>
        <g transform="matrix(0,-1,-1,0,177.71,174.449)">
            <path d="M-6.315,6.315L6.315,6.315" style="fill:none;fill-rule:nonzero;stroke:white;stroke-width:2.16px;"/>
        </g>
        <g transform="matrix(0,-1,-1,0,279.938,177.36)">
            <path d="M-9.268,9.268L9.268,9.268" style="fill:none;fill-rule:nonzero;stroke:white;stroke-width:2.16px;"/>
        </g>
        <g transform="matrix(0,-1,-1,0,267.564,181.203)">
            <path d="M-3.844,3.844L3.844,3.844" style="fill:none;fill-rule:nonzero;stroke:white;stroke-width:2.16px;"/>
        </g>
        <g transform="matrix(0,-1,-1,0,263.979,178.622)">
            <path d="M-6.425,6.425L6.425,6.425" style="fill:none;fill-rule:nonzero;stroke:white;stroke-width:2.16px;"/>
        </g>
        <g transform="matrix(0,-1,-1,0,189.73,174.428)">
            <path d="M-6.337,6.337L6.337,6.337" style="fill:none;fill-rule:nonzero;stroke:white;stroke-width:2.16px;"/>
        </g>
        <g transform="matrix(0,-1,-1,0,354.23,181.457)">
            <path d="M-2.834,2.834L2.834,2.834" style="fill:none;fill-rule:nonzero;stroke:white;stroke-width:2.16px;"/>
        </g>
        <g transform="matrix(0,-1,-1,0,352.182,177.387)">
            <path d="M-6.905,6.905L6.905,6.905" style="fill:none;fill-rule:nonzero;stroke:white;stroke-width:2.16px;"/>
        </g>
        <g transform="matrix(0,-1,-1,0,362.208,179.36)">
            <path d="M-4.932,4.932L4.932,4.932" style="fill:none;fill-rule:nonzero;stroke:white;stroke-width:2.16px;"/>
        </g>
    </g>
</svg>
